<?xml version="1.0" standalone="no"?>
<!DOCTYPE svg PUBLIC "-//W3C//DTD SVG 20010904//EN"
 "http://www.w3.org/TR/2001/REC-SVG-20010904/DTD/svg10.dtd">
<svg version="1.0" xmlns="http://www.w3.org/2000/svg"
 width="300.000000pt" height="60.000000pt" viewBox="0 0 300.000000 60.000000"
 preserveAspectRatio="xMidYMid meet">

<g transform="translate(0.000000,60.000000) scale(0.100000,-0.100000)"
fill="#e0d5f0" stroke="none">
<path d="M550 501 c0 -34 1 -64 1 -68 1 -5 25 -13 53 -19 64 -13 102 -33 144
-77 l33 -34 -37 -33 c-44 -38 -103 -66 -159 -75 l-40 -7 0 -65 0 -65 60 6 c69
7 165 49 218 96 l37 32 37 -32 c52 -46 152 -90 217 -97 l56 -6 0 65 0 66 -37
7 c-56 10 -114 38 -157 75 l-37 33 33 35 c40 42 121 82 166 82 l32 0 0 71 0
70 -47 -7 c-74 -10 -147 -41 -212 -89 -33 -24 -61 -40 -63 -36 -2 4 -24 24
-50 44 -53 40 -130 71 -200 81 l-48 7 0 -60z"/>
<path d="M1290 304 l0 -166 99 4 c88 3 102 6 124 26 36 34 42 67 18 115 -15
31 -18 45 -10 60 16 29 2 83 -28 107 -21 17 -40 20 -114 20 l-89 0 0 -166z
m164 100 c34 -33 3 -74 -56 -74 l-38 0 0 45 0 45 39 0 c23 0 46 -7 55 -16z
m20 -140 c21 -20 20 -30 -4 -54 -14 -14 -33 -20 -65 -20 l-45 0 0 45 0 45 49
0 c32 0 55 -6 65 -16z"/>
<path d="M1580 440 c0 -28 3 -30 35 -30 32 0 35 2 35 30 0 28 -3 30 -35 30
-32 0 -35 -2 -35 -30z"/>
<path d="M2192 443 c8 -10 31 -46 52 -80 l37 -62 -51 -80 -50 -81 38 0 c34 0
40 4 69 51 l32 52 31 -52 c28 -45 36 -51 66 -51 19 0 34 3 34 6 0 4 -20 39
-45 78 -25 40 -45 76 -45 80 0 4 15 31 33 59 63 98 63 97 22 97 -32 0 -39 -5
-63 -45 -15 -24 -30 -45 -34 -45 -3 0 -18 20 -32 45 -25 42 -30 45 -68 45 -38
0 -40 -1 -26 -17z"/>
<path d="M1580 260 l0 -120 35 0 35 0 0 120 0 120 -35 0 -35 0 0 -120z"/>
<path d="M1684 367 c-2 -7 -3 -60 -2 -118 l3 -104 33 -3 32 -3 0 85 c0 73 3
87 18 95 14 7 25 6 40 -5 19 -13 22 -25 22 -95 l0 -79 30 0 30 0 0 89 c0 80
-3 93 -23 117 -21 24 -31 27 -100 30 -58 3 -79 1 -83 -9z"/>
<path d="M1993 365 c-42 -18 -66 -56 -66 -105 0 -68 36 -105 116 -118 28 -5
43 -13 45 -25 9 -48 -69 -67 -90 -22 -9 20 -19 25 -45 25 -31 0 -34 -2 -28
-22 13 -42 36 -70 73 -85 90 -37 194 60 149 140 -15 25 -15 31 -2 57 17 34 19
64 5 90 -7 13 -7 21 0 25 5 3 10 17 10 31 0 23 -2 24 -67 24 -38 -1 -82 -7
-100 -15z m85 -67 c7 -7 12 -24 12 -38 0 -33 -17 -50 -50 -50 -33 0 -50 17
-50 50 0 33 17 50 50 50 14 0 31 -5 38 -12z"/>
</g>
</svg>
