<svg width="200" height="200" viewBox="0 0 200 200" fill="none" xmlns="http://www.w3.org/2000/svg">
  <defs>
    <linearGradient id="quasarGrad" x1="0%" y1="0%" x2="100%" y2="100%">
      <stop offset="0%" stop-color="#a855f7"/>
      <stop offset="100%" stop-color="#6a2ec4"/>
    </linearGradient>
  </defs>
  <rect width="200" height="200" rx="44" fill="url(#quasarGrad)"/>
  <g transform="translate(100,100) scale(5.55) translate(-18,-18)">
    <circle cx="18" cy="18" r="6" fill="#0a060f"/>
    <circle cx="18" cy="18" r="12" fill="none" stroke="#0a060f" stroke-width="1" stroke-dasharray="2 3"/>
    <path d="M18 4l2 4-2 2-2-2 2-4z" fill="#0a060f"/>
    <path d="M18 32l-2-4 2-2 2 2-2 4z" fill="#0a060f"/>
    <path d="M4 18l4-2 2 2-2 2-4-2z" fill="#0a060f"/>
    <path d="M32 18l-4 2-2-2 2-2 4 2z" fill="#0a060f"/>
  </g>
</svg>
